<svg width="14" height="14" viewBox="0 0 14 14" fill="none" xmlns="http://www.w3.org/2000/svg">
<g id="check-outline">
<path id="Vector" d="M5.67269 10.5C5.52036 10.5007 5.37384 10.4363 5.26447 10.3206L2.50963 7.40423C2.45473 7.34574 2.41091 7.27604 2.3807 7.19908C2.35048 7.12212 2.33446 7.03943 2.33354 6.95572C2.33168 6.78665 2.39146 6.62371 2.49972 6.50273C2.60799 6.38175 2.75587 6.31264 2.91084 6.31061C3.0658 6.30858 3.21516 6.3738 3.32606 6.49191L5.67502 8.97756L10.6739 3.68116C10.7849 3.56305 10.9344 3.4979 11.0895 3.50005C11.2446 3.5022 11.3925 3.57147 11.5008 3.69262C11.609 3.81377 11.6688 3.97687 11.6668 4.14606C11.6648 4.31524 11.6013 4.47664 11.4903 4.59475L6.0809 10.3206C5.97153 10.4363 5.82501 10.5007 5.67269 10.5Z" fill="#16A34A"/>
</g>
</svg>
